Coordinates
version=1
nRows=14
nColumns=21
inDegrees=yes

Units are S.I. units (second, meters, Newtons, ...)
If the header above contains a line with 'inDegrees', this indicates whether rotational values are in degrees (yes) or radians (no).

endheader
time	sternoclavicular_r2	sternoclavicular_r3	unrotscap_r3	unrotscap_r2	acromioclavicular_r2	acromioclavicular_r3	acromioclavicular_r1	unrothum_r1	unrothum_r3	unrothum_r2	elv_angle	shoulder_elev	shoulder1_r2	shoulder_rot	elbow_flexion	pro_sup	deviation	flexion	wrist_hand_r1	wrist_hand_r3
      1.00502513	    -12.87612505	      5.45371885	     -5.45371885	     12.87612505	     -2.60715340	     21.07009671	      9.47086346	     -9.47086346	    -21.07009671	      2.60715340	    129.99909045	     53.20700903	   -129.99909045	     20.00366914	      0.00403802	      0.00000000	      0.00000000	     -0.00000000	     -0.00000000	      0.00000000
      1.02512563	    -12.90710273	      5.46683953	     -5.46683953	     12.90710273	     -2.61342575	     21.12078764	      9.49364869	     -9.49364869	    -21.12078764	      2.61342575	    129.99909619	     53.33501571	   -129.99909619	     20.00359400	      0.00401730	      0.00000000	      0.00000000	     -0.00000000	     -0.00000000	      0.00000000
      1.04522613	    -12.93899084	      5.48034583	     -5.48034583	     12.93899084	     -2.61988245	     21.17296836	      9.51710356	     -9.51710356	    -21.17296836	      2.61988245	    129.99910202	     53.46678445	   -129.99910202	     20.00351693	      0.00399622	      0.00000000	      0.00000000	     -0.00000000	     -0.00000000	      0.00000000
      1.06532663	    -12.97178924	      5.49423769	     -5.49423769	     12.97178924	     -2.62652346	     21.22663867	      9.54122800	     -9.54122800	    -21.22663867	      2.62652346	    129.99910795	     53.60231476	   -129.99910795	     20.00343795	      0.00397481	      0.00000000	      0.00000000	     -0.00000000	     -0.00000000	      0.00000000
      1.08542714	    -13.00549725	      5.50851481	     -5.50851481	     13.00549725	     -2.63334864	     21.28179742	      9.56602148	     -9.56602148	    -21.28179742	      2.63334864	    129.99911396	     53.74160373	   -129.99911396	     20.00335709	      0.00395308	      0.00000000	      0.00000000	     -0.00000000	     -0.00000000	      0.00000000
      1.10552764	    -13.04011358	      5.52317665	     -5.52317665	     13.04011358	     -2.64035774	     21.33844252	      9.59148306	     -9.59148306	    -21.33844252	      2.64035774	    129.99912005	     53.88464608	   -129.99912005	     20.00327438	      0.00393105	      0.00000000	      0.00000000	     -0.00000000	     -0.00000000	      0.00000000
      1.12562814	    -13.07563637	      5.53822243	     -5.53822243	     13.07563637	     -2.64755039	     21.39657093	      9.61761138	     -9.61761138	    -21.39657093	      2.64755039	    129.99912621	     54.03143414	   -129.99912621	     20.00318985	      0.00390874	      0.00000000	      0.00000000	     -0.00000000	     -0.00000000	      0.00000000
      1.14572864	    -13.11206318	      5.55365111	     -5.55365111	     13.11206318	     -2.65492607	     21.45617865	      9.64440464	     -9.64440464	    -21.45617865	      2.65492607	    129.99913245	     54.18195783	   -129.99913245	     20.00310355	      0.00388616	      0.00000000	      0.00000000	     -0.00000000	     -0.00000000	      0.00000000
      1.16582915	    -13.14939100	      5.56946141	     -5.56946141	     13.14939100	     -2.66248420	     21.51726075	      9.67186062	     -9.67186062	    -21.51726075	      2.66248420	    129.99913875	     54.33620467	   -129.99913875	     20.00301549	      0.00386333	      0.00000000	      0.00000000	     -0.00000000	     -0.00000000	      0.00000000
      1.18592965	    -13.18761622	      5.58565181	     -5.58565181	     13.18761622	     -2.67022403	     21.57981132	      9.69997667	     -9.69997667	    -21.57981132	      2.67022403	    129.99914511	     54.49415976	   -129.99914511	     20.00292573	      0.00384028	      0.00000000	      0.00000000	     -0.00000000	     -0.00000000	      0.00000000
      1.20603015	    -13.22673672	      5.60222140	     -5.60222140	     13.22673672	     -2.67814513	     21.64382691	      9.72875124	     -9.72875124	    -21.64382691	      2.67814513	    129.99915161	     54.65581434	   -129.99915161	     20.00257288	      0.00381621	      0.00000000	      0.00000000	     -0.00000000	     -0.00000000	      0.00000000
      1.22613065	    -13.26672321	      5.61915780	     -5.61915780	     13.26672321	     -2.68624158	     21.70925959	      9.75816278	     -9.75816278	    -21.70925959	      2.68624158	    129.99915804	     54.82104744	   -129.99915804	     20.00249626	      0.00379341	      0.00000000	      0.00000000	     -0.00000000	     -0.00000000	      0.00000000
      1.24623116	    -13.30763346	      5.63648545	     -5.63648545	     13.30763346	     -2.69452508	     21.77620386	      9.78825376	     -9.78825376	    -21.77620386	      2.69452508	    129.99916450	     54.99009765	   -129.99916450	     20.00267269	      0.00377004	      0.00000000	      0.00000000	     -0.00000000	     -0.00000000	      0.00000000
      1.26633166	    -13.34924990	      5.65411221	     -5.65411221	     13.34924990	     -2.70295156	     21.84430373	      9.81886419	     -9.81886419	    -21.84430373	      2.70295156	    129.99917137	     55.16206604	   -129.99917137	     20.01431325	      0.00361341	      0.00000000	      0.00000000	     -0.00000000	     -0.00000000	      0.00000000
